<svg width="217" height="39" viewBox="0 0 217 39" fill="none" xmlns="http://www.w3.org/2000/svg">
<path d="M1.46 12.148C1.388 12.364 1.28 12.472 1.136 12.472C0.992 12.472 0.92 12.292 0.92 11.932C0.92 11.572 1.232 10.936 1.856 10.024C2.48 9.088 3.38 8.092 4.556 7.036C5.756 5.956 7.088 4.936 8.552 3.976C10.016 3.016 11.708 2.224 13.628 1.6C15.572 0.951998 17.492 0.627998 19.388 0.627998C19.58 0.699999 19.82 0.795999 20.108 0.915999C20.42 1.012 20.816 1.24 21.296 1.6C21.8 1.936 22.052 2.248 22.052 2.536C22.052 2.824 21.992 3.04 21.872 3.184C20.024 4.864 17.948 6.892 15.644 9.268C13.364 11.644 11.612 13.624 10.388 15.208L7.796 18.592C7.652 18.808 7.58 18.976 7.58 19.096V19.132L8.156 18.844C8.204 18.82 8.24 18.796 8.264 18.772C17.024 12.604 22.892 8.236 25.868 5.668C25.94 5.572 26.036 5.524 26.156 5.524C26.276 5.524 26.36 5.56 26.408 5.632C26.456 5.704 26.684 5.932 27.092 6.316C27.5 6.676 27.704 6.952 27.704 7.144C27.704 7.312 27.632 7.456 27.488 7.576C25.112 9.832 22.688 12.664 20.216 16.072C17.744 19.48 16.508 22.108 16.508 23.956C16.508 24.172 16.616 24.28 16.832 24.28C17.312 24.28 18.44 23.632 20.216 22.336C21.992 21.04 24.008 19.396 26.264 17.404C28.544 15.412 30.944 12.976 33.464 10.096C36.008 7.192 38.084 4.372 39.692 1.636C39.908 1.18 40.076 0.807999 40.196 0.52C40.316 0.207999 40.496 0.0519993 40.736 0.0519993C41 0.0519993 41.264 0.411999 41.528 1.132C41.816 1.828 41.96 2.44 41.96 2.968C41.96 3.808 41 5.488 39.08 8.008C37.16 10.528 34.916 13.132 32.348 15.82C29.78 18.508 27.056 20.908 24.176 23.02C21.296 25.108 19.028 26.152 17.372 26.152C16.58 26.152 15.788 25.84 14.996 25.216C14.228 24.592 13.844 23.584 13.844 22.192C13.844 20.464 14.36 18.688 15.392 16.864C15.8 16.144 16.292 15.496 16.868 14.92L17.696 13.948L17.84 13.66V13.624C17.84 13.576 17.828 13.552 17.804 13.552C17.732 13.552 17.624 13.624 17.48 13.768C12.128 18.472 8.504 21.604 6.608 23.164C4.712 24.7 3.596 25.468 3.26 25.468C2.924 25.468 2.648 25.3 2.432 24.964C2.336 24.844 2.228 24.724 2.108 24.604C2.012 24.46 1.94 24.364 1.892 24.316C1.844 24.244 1.796 24.184 1.748 24.136C1.7 24.064 1.664 24.016 1.64 23.992C1.616 23.872 1.604 23.692 1.604 23.452C1.604 23.212 1.688 22.864 1.856 22.408C2.024 21.952 2.18 21.52 2.324 21.112C2.492 20.68 2.948 19.792 3.692 18.448C4.436 17.08 5.324 15.712 6.356 14.344C7.388 12.952 8.9 11.26 10.892 9.268C12.884 7.276 15.116 5.356 17.588 3.508C18.044 3.148 18.272 2.92 18.272 2.824C18.272 2.728 18.224 2.68 18.128 2.68C16.328 2.68 13.328 3.88 9.128 6.28C4.952 8.68 2.396 10.636 1.46 12.148ZM44.1673 7.18C44.4073 7.18 44.5633 7.228 44.6353 7.324C44.9713 7.732 45.1393 8.068 45.1393 8.332C45.1393 8.572 45.0673 8.788 44.9233 8.98C44.7793 9.148 44.5993 9.352 44.3833 9.592C44.1913 9.808 43.7833 10.12 43.1593 10.528C42.5593 10.912 41.9713 11.104 41.3953 11.104C40.9633 11.032 40.7473 10.768 40.7473 10.312C40.7473 9.592 41.1793 8.896 42.0433 8.224C42.9073 7.528 43.6153 7.18 44.1673 7.18ZM35.5273 21.364C35.3353 21.7 35.2393 22 35.2393 22.264C35.2393 22.528 35.3833 22.66 35.6713 22.66C35.8393 22.66 36.1273 22.588 36.5353 22.444C41.0233 20.092 45.4153 17.32 49.7112 14.128C49.9272 14.296 50.0352 14.5 50.0352 14.74C50.0352 14.98 49.9153 15.208 49.6753 15.424C49.4353 15.64 49.0873 15.952 48.6313 16.36C48.1993 16.768 47.3593 17.5 46.1113 18.556C44.8633 19.612 43.6993 20.572 42.6193 21.436C39.7873 23.716 37.6993 25.06 36.3553 25.468C35.9233 25.588 35.4553 25.648 34.9513 25.648C33.1033 25.648 32.1793 24.664 32.1793 22.696C32.1793 21.928 32.5993 20.836 33.4393 19.42C34.2793 17.98 35.1433 16.72 36.0312 15.64C36.9193 14.536 37.5073 13.924 37.7953 13.804C38.2273 13.54 38.6953 13.408 39.1993 13.408C39.7033 13.408 40.1833 13.504 40.6393 13.696C40.7833 13.768 40.8553 13.864 40.8553 13.984C40.8553 14.104 40.7353 14.284 40.4953 14.524C40.2793 14.764 39.9313 15.136 39.4513 15.64C38.9953 16.144 38.2993 17.02 37.3633 18.268C36.4513 19.492 35.8393 20.524 35.5273 21.364ZM58.8842 0.483998C60.1322 0.483998 60.7562 0.819998 60.7562 1.492C60.7562 2.476 59.8082 3.964 57.9122 5.956C56.0402 7.948 54.1562 9.688 52.2602 11.176L49.4522 13.444C49.3082 13.612 49.2362 13.744 49.2362 13.84C49.2362 13.936 49.2962 13.984 49.4162 13.984C51.3122 12.76 53.0162 12.124 54.5282 12.076C54.8162 12.076 55.0802 12.16 55.3202 12.328C56.1362 13 56.5442 13.78 56.5442 14.668C56.5442 15.556 55.6322 17.056 53.8082 19.168C54.5762 18.976 55.6202 18.484 56.9402 17.692C58.2842 16.876 59.4242 16.108 60.3602 15.388L61.7642 14.308C61.9802 14.476 62.0882 14.68 62.0882 14.92C62.0882 15.16 61.9802 15.376 61.7642 15.568C57.8042 19.24 54.8042 21.076 52.7642 21.076C52.6202 21.076 52.4042 21.052 52.1162 21.004L52.1882 20.896C50.7722 22.288 49.3562 23.452 47.9402 24.388C46.5242 25.3 45.3602 25.756 44.4482 25.756C42.1922 25.756 41.0642 24.988 41.0642 23.452C41.0642 22.684 41.3162 21.784 41.8202 20.752C42.3002 19.696 42.8882 18.7 43.5842 17.764C44.2802 16.804 44.9762 15.904 45.6722 15.064C46.3922 14.224 46.9922 13.552 47.4722 13.048C47.9762 12.544 48.2282 12.304 48.2282 12.328C49.9322 10.36 51.4082 8.548 52.6562 6.892C53.9282 5.212 54.7682 4.024 55.1762 3.328C55.5842 2.608 55.9922 1.996 56.4002 1.492C56.8082 0.987999 57.1442 0.699999 57.4082 0.627998C57.6962 0.531998 58.1882 0.483998 58.8842 0.483998ZM44.4122 23.74C45.3962 23.74 46.6682 23.044 48.2282 21.652C49.8122 20.26 51.1562 18.808 52.2602 17.296C53.3882 15.784 53.9522 14.8 53.9522 14.344C53.9522 14.272 53.9162 14.236 53.8442 14.236C52.5962 14.236 51.1802 14.908 49.5962 16.252C48.0122 17.596 46.7042 19 45.6722 20.464C44.6642 21.928 44.1602 22.936 44.1602 23.488C44.1602 23.656 44.2442 23.74 44.4122 23.74ZM67.6516 7.18C67.8916 7.18 68.0476 7.228 68.1196 7.324C68.4556 7.732 68.6236 8.068 68.6236 8.332C68.6236 8.572 68.5516 8.788 68.4076 8.98C68.2636 9.148 68.0836 9.352 67.8676 9.592C67.6756 9.808 67.2676 10.12 66.6436 10.528C66.0436 10.912 65.4556 11.104 64.8796 11.104C64.4476 11.032 64.2316 10.768 64.2316 10.312C64.2316 9.592 64.6636 8.896 65.5276 8.224C66.3916 7.528 67.0996 7.18 67.6516 7.18ZM59.0116 21.364C58.8196 21.7 58.7236 22 58.7236 22.264C58.7236 22.528 58.8676 22.66 59.1556 22.66C59.3236 22.66 59.6116 22.588 60.0196 22.444C64.5076 20.092 68.8996 17.32 73.1956 14.128C73.4116 14.296 73.5196 14.5 73.5196 14.74C73.5196 14.98 73.3996 15.208 73.1596 15.424C72.9196 15.64 72.5716 15.952 72.1156 16.36C71.6836 16.768 70.8436 17.5 69.5956 18.556C68.3476 19.612 67.1836 20.572 66.1036 21.436C63.2716 23.716 61.1836 25.06 59.8396 25.468C59.4076 25.588 58.9396 25.648 58.4356 25.648C56.5876 25.648 55.6636 24.664 55.6636 22.696C55.6636 21.928 56.0836 20.836 56.9236 19.42C57.7636 17.98 58.6276 16.72 59.5156 15.64C60.4036 14.536 60.9916 13.924 61.2796 13.804C61.7116 13.54 62.1796 13.408 62.6836 13.408C63.1876 13.408 63.6676 13.504 64.1236 13.696C64.2676 13.768 64.3396 13.864 64.3396 13.984C64.3396 14.104 64.2196 14.284 63.9796 14.524C63.7636 14.764 63.4156 15.136 62.9356 15.64C62.4796 16.144 61.7836 17.02 60.8476 18.268C59.9356 19.492 59.3236 20.524 59.0116 21.364ZM80.0286 0.591999C80.2686 0.591999 80.4246 0.639999 80.4966 0.735999C80.8326 1.144 81.0006 1.468 81.0006 1.708C81.0006 2.164 80.5446 2.92 79.6326 3.976C78.3606 5.44 77.5326 6.172 77.1486 6.172C77.0766 6.172 77.0406 6.136 77.0406 6.064C77.0406 5.992 77.0886 5.896 77.1846 5.776C77.5446 5.272 77.7846 4.912 77.9046 4.696L78.1206 4.336C77.7606 4.456 77.4726 4.516 77.2566 4.516C76.8246 4.444 76.6086 4.18 76.6086 3.724C76.6086 3.004 77.0406 2.308 77.9046 1.636C78.7686 0.939999 79.4766 0.591999 80.0286 0.591999ZM77.9668 22.372C78.8068 22.372 79.5748 21.868 80.2708 20.86C80.9908 19.828 81.4948 18.796 81.7828 17.764C82.0708 16.708 82.2148 15.868 82.2148 15.244C82.2148 15.076 82.0828 14.992 81.8188 14.992C81.5788 14.992 81.2908 15.124 80.9548 15.388L76.2388 19.024C75.9028 19.216 75.5188 19.312 75.0868 19.312C74.6548 19.312 74.4388 19.156 74.4388 18.844C74.4388 18.628 74.4628 18.484 74.5108 18.412C74.5828 18.34 74.7628 18.22 75.0508 18.052C76.8268 16.828 79.2508 14.836 82.3228 12.076C82.6828 11.596 83.0068 11.356 83.2948 11.356C83.5828 11.356 84.0628 11.452 84.7348 11.644C85.4068 11.812 85.7428 12.016 85.7428 12.256C85.7428 13.696 85.6108 15.004 85.3468 16.18C85.0828 17.356 84.8068 18.256 84.5188 18.88C84.2548 19.48 84.1228 19.804 84.1228 19.852C84.1228 19.9 84.1468 19.924 84.1948 19.924C84.2428 19.924 84.3388 19.888 84.4828 19.816C86.2828 18.904 88.5748 17.416 91.3588 15.352L92.2227 14.704C92.4388 14.872 92.5468 15.076 92.5468 15.316C92.5468 15.556 92.4388 15.772 92.2227 15.964C92.1748 15.964 91.5508 16.468 90.3508 17.476C89.1748 18.484 87.8548 19.588 86.3908 20.788C84.9508 21.964 83.4028 23.044 81.7468 24.028C80.0908 25.012 78.8068 25.504 77.8948 25.504C75.6388 25.504 74.5108 24.148 74.5108 21.436C74.5108 21.22 74.5948 21.028 74.7628 20.86C74.9548 20.668 75.1948 20.572 75.4828 20.572C75.4828 20.692 75.5428 20.884 75.6628 21.148C75.8068 21.388 75.9508 21.592 76.0947 21.76C76.5268 22.168 77.1508 22.372 77.9668 22.372ZM119.858 1.96C120.89 2.536 121.73 3.316 122.378 4.3C123.05 5.284 123.386 6.388 123.386 7.612C123.386 8.836 122.618 10.24 121.082 11.824C119.546 13.408 117.674 14.764 115.466 15.892C113.282 16.996 111.374 17.548 109.742 17.548C108.134 17.548 106.97 16.876 106.25 15.532C102.122 21.076 99.7944 24.436 99.2664 25.612C99.2904 25.732 99.3024 25.9 99.3024 26.116C99.3024 26.356 99.1704 26.476 98.9064 26.476C98.6424 26.476 98.2944 26.248 97.8624 25.792C97.4544 25.36 97.2504 24.736 97.2504 23.92C97.2504 23.68 97.2624 23.488 97.2864 23.344C97.5024 21.76 99.6984 18.64 103.874 13.984C108.074 9.328 111.098 6.496 112.946 5.488C113.33 5.296 113.618 5.2 113.81 5.2C114.002 5.2 114.194 5.26 114.386 5.38C114.602 5.5 114.71 5.644 114.71 5.812C114.71 5.98 114.662 6.112 114.566 6.208C112.766 8.08 111.686 9.22 111.326 9.628L107.042 14.596C106.994 14.668 106.97 14.74 106.97 14.812C106.97 14.98 107.078 15.064 107.294 15.064C108.254 15.064 109.55 14.788 111.182 14.236C112.838 13.684 114.47 13 116.078 12.184C117.686 11.344 119.078 10.372 120.254 9.268C121.43 8.14 122.018 7.096 122.018 6.136C122.018 5.344 121.262 4.756 119.75 4.372C118.238 3.988 116.606 3.796 114.854 3.796C113.126 3.796 111.254 4.048 109.238 4.552C107.222 5.032 105.458 5.632 103.946 6.352C102.458 7.072 101.114 7.828 99.9144 8.62C98.7144 9.388 97.8024 10.072 97.1784 10.672C96.5784 11.248 96.2784 11.632 96.2784 11.824C96.2784 11.992 96.3624 12.076 96.5304 12.076C96.6984 12.076 97.1544 11.956 97.8984 11.716C100.298 10.924 102.65 9.856 104.954 8.512C105.122 8.416 105.23 8.368 105.278 8.368C105.35 8.368 105.386 8.404 105.386 8.476C105.386 8.524 105.23 8.752 104.918 9.16C104.63 9.544 104.222 10.024 103.694 10.6C103.166 11.152 102.59 11.692 101.966 12.22C101.342 12.748 100.634 13.204 99.8424 13.588C99.0744 13.948 98.3184 14.128 97.5744 14.128C96.8544 14.128 96.1344 13.84 95.4144 13.264C94.7184 12.664 94.3704 11.86 94.3704 10.852C94.3704 9.82 94.8744 8.704 95.8824 7.504C96.8904 6.304 98.2104 5.164 99.8424 4.084C101.498 3.004 103.55 2.092 105.998 1.348C108.446 0.603999 110.834 0.231999 113.162 0.231999C115.49 0.231999 117.722 0.807999 119.858 1.96ZM118.099 23.416C118.867 23.416 119.815 22.912 120.943 21.904C122.071 20.896 122.659 20.2 122.707 19.816C122.419 19.576 122.107 19.144 121.771 18.52C121.459 17.872 121.291 17.548 121.267 17.548C120.523 18.244 119.863 19.048 119.287 19.96C118.375 21.496 117.919 22.552 117.919 23.128C117.919 23.32 117.979 23.416 118.099 23.416ZM125.875 14.596C125.635 14.596 125.131 14.968 124.363 15.712C123.619 16.456 123.247 16.972 123.247 17.26C123.247 17.332 123.319 17.476 123.463 17.692C123.607 17.908 123.715 18.016 123.787 18.016C124.195 18.016 124.651 17.524 125.155 16.54C125.683 15.556 125.947 14.992 125.947 14.848C125.947 14.68 125.923 14.596 125.875 14.596ZM125.947 19.24C126.619 19.24 127.663 18.832 129.079 18.016C130.519 17.2 131.779 16.384 132.859 15.568L134.479 14.308C134.695 14.476 134.803 14.68 134.803 14.92C134.803 15.16 134.695 15.376 134.479 15.568C130.519 19.24 127.519 21.076 125.479 21.076C125.335 21.076 125.119 21.052 124.831 21.004C122.119 24.148 119.791 25.72 117.847 25.72C116.551 25.528 115.735 25.072 115.399 24.352C115.207 23.992 115.111 23.536 115.111 22.984C115.111 21.4 116.023 19.516 117.847 17.332C119.671 15.124 121.963 13.504 124.723 12.472C124.963 12.472 125.143 12.532 125.263 12.652C125.383 12.748 125.491 12.808 125.587 12.832C125.683 12.832 125.803 12.784 125.947 12.688C126.115 12.568 126.331 12.508 126.595 12.508C126.859 12.484 127.135 12.628 127.423 12.94C127.807 13.252 127.999 13.636 127.999 14.092C127.999 15.436 127.315 17.152 125.947 19.24ZM128.875 18.268C130.195 17.356 131.575 16.372 133.015 15.316C132.247 14.788 131.755 14.272 131.539 13.768C131.467 13.6 131.431 13.48 131.431 13.408C131.431 12.928 131.587 12.616 131.899 12.472C132.211 12.304 132.715 12.22 133.411 12.22C133.675 12.22 134.455 12.544 135.751 13.192C137.047 13.84 137.863 14.164 138.199 14.164C138.559 14.164 139.051 14.068 139.675 13.876C140.299 13.66 140.791 13.552 141.151 13.552C141.535 13.552 141.811 13.636 141.979 13.804C142.579 14.596 142.879 15.076 142.879 15.244C142.879 15.412 142.795 15.556 142.627 15.676C142.483 15.772 141.991 16.108 141.151 16.684C140.335 17.26 139.531 17.848 138.739 18.448C137.947 19.048 137.203 19.72 136.507 20.464C135.811 21.208 135.463 21.808 135.463 22.264C135.463 22.336 135.523 22.372 135.643 22.372C136.939 22.372 141.307 19.744 148.747 14.488C148.915 14.488 148.999 14.644 148.999 14.956C148.999 15.244 148.051 16.276 146.155 18.052C144.259 19.804 142.111 21.532 139.711 23.236C137.335 24.916 135.607 25.756 134.527 25.756C132.847 25.756 132.007 24.916 132.007 23.236C132.007 22.324 132.307 21.448 132.907 20.608C133.531 19.744 134.827 18.592 136.795 17.152C136.387 17.152 135.835 17.056 135.139 16.864C134.443 16.648 133.999 16.396 133.807 16.108C133.183 16.66 132.103 17.584 130.567 18.88C130.207 19.144 129.739 19.276 129.163 19.276C128.587 19.276 128.299 19.192 128.299 19.024C128.299 18.832 128.491 18.58 128.875 18.268ZM159.008 8.368L160.844 8.332C163.22 8.332 164.948 8.668 166.028 9.34C166.556 9.508 166.82 9.724 166.82 9.988C166.82 10.18 166.58 10.312 166.1 10.384C165.644 10.456 164.024 10.648 161.24 10.96C158.48 11.248 156.584 11.416 155.552 11.464C155.096 11.488 154.04 12.28 152.384 13.84C150.752 15.4 149.192 17.116 147.704 18.988C146.216 20.86 145.472 22.168 145.472 22.912C145.472 23.032 145.532 23.14 145.652 23.236C145.772 23.308 145.916 23.344 146.084 23.344C146.276 23.344 146.564 23.272 146.948 23.128C151.508 20.44 155.936 17.5 160.232 14.308C160.448 14.476 160.556 14.68 160.556 14.92C160.556 15.16 160.436 15.4 160.196 15.64C159.956 15.856 159.596 16.18 159.116 16.612C158.66 17.044 157.796 17.824 156.524 18.952C155.252 20.08 154.052 21.088 152.924 21.976C149.9 24.424 147.788 25.84 146.588 26.224C146.156 26.344 145.64 26.404 145.04 26.404C144.464 26.404 143.924 26.104 143.42 25.504C142.94 24.904 142.7 24.088 142.7 23.056C142.7 22.024 143.36 20.536 144.68 18.592C146.024 16.648 147.848 14.656 150.152 12.616C150.368 12.448 150.476 12.292 150.476 12.148C150.476 12.004 150.224 11.932 149.72 11.932L147.452 12.004C144.26 12.004 142.616 11.644 142.52 10.924C141.776 10.78 141.404 10.564 141.404 10.276C141.404 10.18 141.452 10.132 141.548 10.132C141.644 10.108 141.728 10.096 141.8 10.096C141.872 10.072 141.992 10.048 142.16 10.024C142.328 10 143.648 9.808 146.12 9.448C148.616 9.088 151.448 8.788 154.616 8.548L157.1 5.236C157.244 4.948 157.748 4.804 158.612 4.804C159.476 4.804 159.908 4.984 159.908 5.344C159.908 5.464 159.812 5.68 159.62 5.992L158.72 7.252C158.6 7.636 158.528 7.924 158.504 8.116C158.504 8.284 158.672 8.368 159.008 8.368ZM155.354 25.324C155.354 25.372 155.414 25.492 155.534 25.684C155.87 26.212 156.038 27.028 156.038 28.132C156.038 29.236 155.462 30.664 154.31 32.416C153.182 34.192 151.874 35.716 150.386 36.988C148.874 38.284 147.638 38.932 146.678 38.932C145.478 38.932 144.722 37.852 144.41 35.692C144.41 32.716 146.582 28.78 150.926 23.884L170.546 1.672C170.69 1.192 171.05 0.951998 171.626 0.951998C172.514 0.951998 173.102 1.06 173.39 1.276C173.678 1.492 173.822 1.756 173.822 2.068C173.822 2.356 173.57 2.788 173.066 3.364L155.498 22.552C155.522 22.576 155.594 22.588 155.714 22.588C155.858 22.588 156.002 22.552 156.146 22.48C160.586 20.104 164.954 17.32 169.25 14.128C169.466 14.296 169.574 14.5 169.574 14.74C169.574 14.98 169.454 15.208 169.214 15.424C168.998 15.64 168.686 15.952 168.278 16.36C167.87 16.744 167.078 17.464 165.902 18.52C164.726 19.552 163.586 20.5 162.482 21.364C161.402 22.204 160.19 23.02 158.846 23.812C157.502 24.604 156.338 25.108 155.354 25.324ZM146.894 35.764C147.518 35.764 148.454 35.152 149.702 33.928C150.95 32.704 152.078 31.324 153.086 29.788C154.094 28.252 154.598 27.076 154.598 26.26C154.598 25.468 154.346 25.072 153.842 25.072C153.626 25.072 153.374 25.192 153.086 25.432C151.934 26.536 150.83 27.904 149.774 29.536C148.718 31.168 147.938 32.524 147.434 33.604C146.93 34.684 146.678 35.308 146.678 35.476C146.678 35.668 146.75 35.764 146.894 35.764ZM165.525 23.416C166.293 23.416 167.241 22.912 168.369 21.904C169.497 20.896 170.085 20.2 170.133 19.816C169.845 19.576 169.533 19.144 169.197 18.52C168.885 17.872 168.717 17.548 168.693 17.548C167.949 18.244 167.289 19.048 166.713 19.96C165.801 21.496 165.345 22.552 165.345 23.128C165.345 23.32 165.405 23.416 165.525 23.416ZM173.301 14.596C173.061 14.596 172.557 14.968 171.789 15.712C171.045 16.456 170.673 16.972 170.673 17.26C170.673 17.332 170.745 17.476 170.889 17.692C171.033 17.908 171.141 18.016 171.213 18.016C171.621 18.016 172.077 17.524 172.581 16.54C173.109 15.556 173.373 14.992 173.373 14.848C173.373 14.68 173.349 14.596 173.301 14.596ZM173.373 19.24C174.045 19.24 175.089 18.832 176.505 18.016C177.945 17.2 179.205 16.384 180.285 15.568L181.905 14.308C182.121 14.476 182.229 14.68 182.229 14.92C182.229 15.16 182.121 15.376 181.905 15.568C177.945 19.24 174.945 21.076 172.905 21.076C172.761 21.076 172.545 21.052 172.257 21.004C169.545 24.148 167.217 25.72 165.273 25.72C163.977 25.528 163.161 25.072 162.825 24.352C162.633 23.992 162.537 23.536 162.537 22.984C162.537 21.4 163.449 19.516 165.273 17.332C167.097 15.124 169.389 13.504 172.149 12.472C172.389 12.472 172.569 12.532 172.689 12.652C172.809 12.748 172.917 12.808 173.013 12.832C173.109 12.832 173.229 12.784 173.373 12.688C173.541 12.568 173.757 12.508 174.021 12.508C174.285 12.484 174.561 12.628 174.849 12.94C175.233 13.252 175.425 13.636 175.425 14.092C175.425 15.436 174.741 17.152 173.373 19.24ZM180.109 22.624C180.901 22.624 182.461 21.916 184.789 20.5C187.141 19.084 189.277 17.668 191.197 16.252L194.113 14.128C194.329 14.296 194.437 14.5 194.437 14.74C194.437 14.98 194.317 15.208 194.077 15.424C193.837 15.64 193.489 15.952 193.033 16.36C192.601 16.768 191.761 17.5 190.513 18.556C189.265 19.612 188.101 20.572 187.021 21.436C184.189 23.716 182.101 25.06 180.757 25.468C180.325 25.588 179.881 25.648 179.425 25.648C178.969 25.648 178.609 25.612 178.345 25.54C178.081 25.468 177.793 25.312 177.481 25.072C176.857 24.544 176.545 23.368 176.545 21.544C176.545 21.04 176.761 20.272 177.193 19.24C177.625 18.208 178.333 16.96 179.317 15.496C180.325 14.032 181.489 12.568 182.809 11.104C184.153 9.64 185.845 8.176 187.885 6.712C189.949 5.248 192.145 4.06 194.473 3.148C194.833 3.028 195.157 2.968 195.445 2.968C195.733 2.968 195.997 3.1 196.237 3.364C196.477 3.604 196.645 3.856 196.741 4.12L196.921 4.48C196.921 5.032 196.069 6.244 194.365 8.116C192.613 10.06 190.585 11.92 188.281 13.696C186.001 15.448 183.877 16.948 181.909 18.196C180.301 19.252 179.497 20.356 179.497 21.508C179.497 22.252 179.701 22.624 180.109 22.624ZM183.349 15.172C183.949 15.172 185.761 13.696 188.785 10.744C191.833 7.792 193.357 6.148 193.357 5.812L193.321 5.74L192.709 6.028C191.461 6.844 189.793 8.236 187.705 10.204C185.641 12.172 184.213 13.708 183.421 14.812C183.325 14.932 183.277 15.028 183.277 15.1C183.277 15.148 183.301 15.172 183.349 15.172ZM199.769 7.18C200.009 7.18 200.165 7.228 200.237 7.324C200.573 7.732 200.741 8.068 200.741 8.332C200.741 8.572 200.669 8.788 200.525 8.98C200.381 9.148 200.201 9.352 199.985 9.592C199.793 9.808 199.385 10.12 198.761 10.528C198.161 10.912 197.573 11.104 196.997 11.104C196.565 11.032 196.349 10.768 196.349 10.312C196.349 9.592 196.781 8.896 197.645 8.224C198.509 7.528 199.217 7.18 199.769 7.18ZM191.129 21.364C190.937 21.7 190.841 22 190.841 22.264C190.841 22.528 190.985 22.66 191.273 22.66C191.441 22.66 191.729 22.588 192.137 22.444C196.625 20.092 201.017 17.32 205.313 14.128C205.529 14.296 205.637 14.5 205.637 14.74C205.637 14.98 205.517 15.208 205.277 15.424C205.037 15.64 204.689 15.952 204.233 16.36C203.801 16.768 202.961 17.5 201.713 18.556C200.465 19.612 199.301 20.572 198.221 21.436C195.389 23.716 193.301 25.06 191.957 25.468C191.525 25.588 191.057 25.648 190.553 25.648C188.705 25.648 187.781 24.664 187.781 22.696C187.781 21.928 188.201 20.836 189.041 19.42C189.881 17.98 190.745 16.72 191.633 15.64C192.521 14.536 193.109 13.924 193.397 13.804C193.829 13.54 194.297 13.408 194.801 13.408C195.305 13.408 195.785 13.504 196.241 13.696C196.385 13.768 196.457 13.864 196.457 13.984C196.457 14.104 196.337 14.284 196.097 14.524C195.881 14.764 195.533 15.136 195.053 15.64C194.597 16.144 193.901 17.02 192.965 18.268C192.053 19.492 191.441 20.524 191.129 21.364ZM199.978 23.416C200.746 23.416 201.694 22.912 202.822 21.904C203.95 20.896 204.538 20.2 204.586 19.816C204.298 19.576 203.986 19.144 203.65 18.52C203.338 17.872 203.17 17.548 203.146 17.548C202.402 18.244 201.742 19.048 201.166 19.96C200.254 21.496 199.798 22.552 199.798 23.128C199.798 23.32 199.858 23.416 199.978 23.416ZM207.754 14.596C207.514 14.596 207.01 14.968 206.242 15.712C205.498 16.456 205.126 16.972 205.126 17.26C205.126 17.332 205.198 17.476 205.342 17.692C205.486 17.908 205.594 18.016 205.666 18.016C206.074 18.016 206.53 17.524 207.034 16.54C207.562 15.556 207.826 14.992 207.826 14.848C207.826 14.68 207.802 14.596 207.754 14.596ZM207.826 19.24C208.498 19.24 209.542 18.832 210.958 18.016C212.398 17.2 213.658 16.384 214.738 15.568L216.358 14.308C216.574 14.476 216.682 14.68 216.682 14.92C216.682 15.16 216.574 15.376 216.358 15.568C212.398 19.24 209.398 21.076 207.358 21.076C207.214 21.076 206.998 21.052 206.71 21.004C203.998 24.148 201.67 25.72 199.726 25.72C198.43 25.528 197.614 25.072 197.278 24.352C197.086 23.992 196.99 23.536 196.99 22.984C196.99 21.4 197.902 19.516 199.726 17.332C201.55 15.124 203.842 13.504 206.602 12.472C206.842 12.472 207.022 12.532 207.142 12.652C207.262 12.748 207.37 12.808 207.466 12.832C207.562 12.832 207.682 12.784 207.826 12.688C207.994 12.568 208.21 12.508 208.474 12.508C208.738 12.484 209.014 12.628 209.302 12.94C209.686 13.252 209.878 13.636 209.878 14.092C209.878 15.436 209.194 17.152 207.826 19.24Z" fill="white"/>
</svg>
